<?xml version="1.0" standalone="no"?><!DOCTYPE svg PUBLIC "-//W3C//DTD SVG 1.1//EN" "http://www.w3.org/Graphics/SVG/1.1/DTD/svg11.dtd"><svg t="1627394945673" class="icon" viewBox="0 0 1024 1024" version="1.1" xmlns="http://www.w3.org/2000/svg" p-id="6999" xmlns:xlink="http://www.w3.org/1999/xlink" width="200" height="200"><defs><style type="text/css">@font-face { font-family: feedback-iconfont; src: url("//at.alicdn.com/t/font_1031158_1uhr8ri0pk5.eot?#iefix") format("embedded-opentype"), url("//at.alicdn.com/t/font_1031158_1uhr8ri0pk5.woff2") format("woff2"), url("//at.alicdn.com/t/font_1031158_1uhr8ri0pk5.woff") format("woff"), url("//at.alicdn.com/t/font_1031158_1uhr8ri0pk5.ttf") format("truetype"), url("//at.alicdn.com/t/font_1031158_1uhr8ri0pk5.svg#iconfont") format("svg"); }
</style></defs><path d="M358.265 273.813l-111.561 94.165c-19.508 16.466-48.67 14-65.136-5.508-16.466-19.507-14-48.67 5.508-65.135l187.597-158.346c30.052-25.365 76.036-4.003 76.036 35.322v682.667c0 25.528-20.694 46.222-46.222 46.222-25.528 0-46.222-20.694-46.222-46.222V273.813z m410.837 389.409c19.507-16.466 48.67-14 65.135 5.508 16.466 19.507 14 48.67-5.507 65.135L641.132 892.211c-30.05 25.365-76.036 4.003-76.036-35.322V174.222c0-25.528 20.695-46.222 46.223-46.222 25.527 0 46.222 20.694 46.222 46.222v583.165l111.56-94.165z" p-id="7000" fill="#d7d7d7"></path></svg>